<svg width="251" height="75" viewBox="0 0 251 75" fill="none" xmlns="http://www.w3.org/2000/svg">
<g clip-path="url(#clip0_1_382)">
<path d="M0.376968 18.3546H16.1111C31.0078 18.3546 43.0839 30.4307 43.0839 45.3274V47.5751C43.0839 62.4716 31.0078 74.5479 16.1111 74.5479H0.376968V18.3546Z" fill="#946BEC"/>
<path d="M10.121 10.1155H25.8552C40.752 10.1155 52.828 22.1917 52.828 37.0883V39.3361C52.828 54.2325 40.752 66.3088 25.8552 66.3088H10.121V10.1155Z" fill="#0CB6F4"/>
<path d="M17.9881 18.3546H10.3084H10.121V66.3062H27.3537C32.1488 66.3062 36.4695 64.3084 38.0304 63.3093C44.324 55.0676 43.3999 42.8924 42.1512 37.835C36.1573 21.3516 23.4826 18.4795 17.9881 18.3546Z" fill="#31338D"/>
<path d="M29.2759 50.5713C28.5499 50.5713 28.5343 50.5713 28.2715 49.873C28.0655 49.2665 27.8276 48.6719 27.5588 48.0916C27.2263 47.4458 26.7124 46.915 26.0823 46.5658C25.9955 46.5209 25.8991 46.4984 25.8017 46.5003C24.8106 46.4665 23.8775 46.2515 23.0891 45.5959C23.0265 45.5532 22.9559 45.5232 22.8817 45.5086C22.8075 45.4936 22.7311 45.4944 22.6571 45.5101C21.6972 45.5892 20.7507 45.5532 19.8532 45.1509C18.6506 44.6107 17.8489 43.2927 18.0048 42.07C18.0737 41.5245 18.268 41.0031 18.5721 40.5479C18.8762 40.0927 19.2815 39.7166 19.7552 39.4499C19.9539 39.3337 20.1154 39.1618 20.2207 38.955C20.744 37.9491 21.6237 37.454 22.686 37.2393C23.1503 37.1411 23.6307 37.1543 24.0891 37.2777C24.1565 37.3032 24.2289 37.3119 24.3003 37.3028C24.3716 37.2937 24.4397 37.2673 24.4989 37.2257C25.1068 36.7306 25.8351 36.6922 26.5544 36.7194C27.2226 36.7442 27.8907 36.8459 28.4363 37.298C28.5499 37.3907 28.6902 37.3568 28.8238 37.3636C30.454 37.4495 31.6856 38.2069 32.4093 39.6919C32.6368 40.2257 32.9071 40.7401 33.2178 41.229C33.9973 42.339 33.8347 44.0341 32.9572 45.0718C32.6893 45.4015 32.3337 45.6465 31.9328 45.7769C31.7608 45.8278 31.6128 45.9402 31.5163 46.0934C31.2437 46.5104 30.8463 46.8273 30.3827 46.9978C30.2683 47.03 30.1692 47.103 30.1037 47.2034C30.0382 47.3038 30.0108 47.4252 30.0264 47.5447C30.0193 48.1407 30.0424 48.7368 30.0955 49.3305C30.1088 49.5564 30.1311 49.7643 30.1556 49.979C30.1758 50.0539 30.1775 50.133 30.1607 50.2086C30.1439 50.2843 30.109 50.3551 30.0591 50.4139C30.0092 50.4727 29.9458 50.5185 29.8745 50.5466C29.8031 50.575 29.7261 50.5848 29.65 50.5758L29.2759 50.5713Z" fill="white"/>
<path d="M89.8661 27.7454C89.8661 30.7866 89.296 33.3335 88.1556 35.3863C87.0404 37.4391 85.4314 38.985 83.3279 40.0242C81.2244 41.0631 78.6773 41.5827 75.6867 41.5827H68.1219V14.4404H76.485C79.222 14.4404 81.5919 14.9472 83.5938 15.9609C85.5958 16.9746 87.1419 18.4699 88.2317 20.4466C89.3214 22.3981 89.8661 24.831 89.8661 27.7454ZM86.2548 27.8594C86.2548 25.4519 85.8494 23.4751 85.0384 21.9292C84.2528 20.3833 83.087 19.2428 81.5409 18.5079C80.0203 17.7476 78.1704 17.3675 75.9909 17.3675H71.5434V38.6554H75.2308C78.9054 38.6554 81.6552 37.7559 83.48 35.9565C85.3298 34.1319 86.2548 31.4328 86.2548 27.8594ZM103.303 20.8268C105.052 20.8268 106.547 21.2069 107.789 21.9672C109.056 22.7275 110.019 23.8046 110.678 25.1985C111.362 26.567 111.704 28.1763 111.704 30.0263V32.041H97.7531C97.8036 34.3473 98.3865 36.1086 99.5018 37.3251C100.642 38.516 102.226 39.1117 104.253 39.1117C105.546 39.1117 106.686 38.9978 107.675 38.7696C108.689 38.516 109.727 38.1612 110.792 37.7053V40.6323C109.753 41.0885 108.726 41.4178 107.713 41.6205C106.699 41.8487 105.495 41.9629 104.101 41.9629C102.175 41.9629 100.465 41.5699 98.9695 40.7844C97.4994 39.9988 96.3463 38.8329 95.5102 37.287C94.6991 35.7158 94.2938 33.8024 94.2938 31.5468C94.2938 29.3167 94.6613 27.4033 95.3959 25.8067C96.1564 24.2101 97.208 22.9809 98.5514 22.1193C99.9199 21.2576 101.504 20.8268 103.303 20.8268ZM103.265 23.5638C101.669 23.5638 100.401 24.0834 99.4636 25.1224C98.5514 26.1361 98.0063 27.5554 97.8291 29.38H108.207C108.207 28.2142 108.03 27.2006 107.675 26.3389C107.32 25.4772 106.775 24.8056 106.04 24.3241C105.331 23.8173 104.406 23.5638 103.265 23.5638ZM123.696 39.2259C124.203 39.2259 124.722 39.1877 125.255 39.1117C125.787 39.0105 126.218 38.909 126.547 38.8075V41.3545C126.192 41.5321 125.686 41.6715 125.027 41.7726C124.368 41.8996 123.734 41.9629 123.126 41.9629C122.062 41.9629 121.073 41.7853 120.161 41.4306C119.274 41.0503 118.551 40.4041 117.994 39.4919C117.436 38.5797 117.158 37.2997 117.158 35.6524V23.7919H114.269V22.1953L117.196 20.8648L118.526 16.5312H120.503V21.2069H126.395V23.7919H120.503V35.5764C120.503 36.8182 120.794 37.7432 121.377 38.3516C121.985 38.9345 122.758 39.2259 123.696 39.2259ZM138.496 20.8268C140.245 20.8268 141.74 21.2069 142.982 21.9672C144.249 22.7275 145.212 23.8046 145.871 25.1985C146.555 26.567 146.897 28.1763 146.897 30.0263V32.041H132.946C132.997 34.3473 133.58 36.1086 134.695 37.3251C135.835 38.516 137.419 39.1117 139.447 39.1117C140.739 39.1117 141.879 38.9978 142.868 38.7696C143.881 38.516 144.921 38.1612 145.985 37.7053V40.6323C144.946 41.0885 143.92 41.4178 142.906 41.6205C141.892 41.8487 140.688 41.9629 139.295 41.9629C137.369 41.9629 135.658 41.5699 134.163 40.7844C132.693 39.9988 131.539 38.8329 130.703 37.287C129.892 35.7158 129.487 33.8024 129.487 31.5468C129.487 29.3167 129.854 27.4033 130.589 25.8067C131.35 24.2101 132.401 22.9809 133.744 22.1193C135.113 21.2576 136.697 20.8268 138.496 20.8268ZM138.458 23.5638C136.862 23.5638 135.594 24.0834 134.657 25.1224C133.744 26.1361 133.199 27.5554 133.022 29.38H143.4C143.4 28.2142 143.223 27.2006 142.868 26.3389C142.513 25.4772 141.968 24.8056 141.233 24.3241C140.524 23.8173 139.599 23.5638 138.458 23.5638ZM161.588 20.8268C161.968 20.8268 162.374 20.8521 162.805 20.9028C163.261 20.9281 163.654 20.9788 163.983 21.0549L163.565 24.1341C163.235 24.058 162.868 23.9947 162.463 23.944C162.082 23.8933 161.715 23.868 161.36 23.868C160.575 23.868 159.827 24.0327 159.117 24.3621C158.408 24.6916 157.774 25.1604 157.216 25.7687C156.659 26.3516 156.215 27.0612 155.886 27.8975C155.582 28.7338 155.43 29.6715 155.43 30.7105V41.5827H152.084V21.2069H154.821L155.202 24.9323H155.354C155.785 24.1721 156.304 23.4878 156.912 22.8796C157.521 22.246 158.217 21.7518 159.003 21.397C159.789 21.0169 160.651 20.8268 161.588 20.8268Z" fill="white"/>
<path d="M90.3642 59.9627C90.3642 63.0039 89.7813 65.551 88.6159 67.6039C87.45 69.6565 85.7519 71.2025 83.5217 72.2417C81.3171 73.2806 78.6558 73.8002 75.5386 73.8002H67.8599V46.6577H76.3751C79.2136 46.6577 81.6719 47.1645 83.7499 48.1783C85.8534 49.192 87.4751 50.6875 88.6159 52.664C89.7813 54.6154 90.3642 57.0486 90.3642 59.9627ZM84.3961 60.1148C84.3961 58.1129 84.1047 56.4656 83.5217 55.1732C82.9388 53.8808 82.0645 52.9303 80.8986 52.322C79.7583 51.6885 78.352 51.3715 76.6793 51.3715H73.5999V69.0484H76.0709C78.8839 69.0484 80.9747 68.3007 82.3432 66.8056C83.7117 65.3101 84.3961 63.08 84.3961 60.1148ZM104.096 52.664C106.023 52.664 107.67 53.0315 109.038 53.7665C110.432 54.5015 111.509 55.5658 112.269 56.9598C113.03 58.3537 113.41 60.0643 113.41 62.0917V64.8287H100.029C100.08 66.4253 100.548 67.68 101.435 68.5922C102.348 69.5044 103.602 69.9607 105.199 69.9607C106.542 69.9607 107.759 69.834 108.848 69.5804C109.938 69.3017 111.066 68.8836 112.232 68.3262V72.6976C111.218 73.2045 110.141 73.572 109 73.8002C107.885 74.0534 106.53 74.1804 104.933 74.1804C102.854 74.1804 101.017 73.8002 99.4207 73.04C97.8241 72.2541 96.5695 71.0759 95.6573 69.5044C94.7451 67.9332 94.2888 65.9567 94.2888 63.5741C94.2888 61.1413 94.6941 59.1266 95.5052 57.5299C96.3417 55.9082 97.4948 54.6914 98.9644 53.8808C100.434 53.0697 102.145 52.664 104.096 52.664ZM104.135 56.6938C103.045 56.6938 102.132 57.0486 101.398 57.7581C100.688 58.4676 100.27 59.5701 100.143 61.0653H108.088C108.088 60.2291 107.936 59.4814 107.632 58.8224C107.353 58.1634 106.922 57.6438 106.339 57.264C105.756 56.8837 105.021 56.6938 104.135 56.6938ZM142.37 52.664C144.727 52.664 146.501 53.2724 147.692 54.4888C148.909 55.6801 149.517 57.606 149.517 60.2669V73.8002H143.853V61.6736C143.853 60.1782 143.599 59.0633 143.092 58.3283C142.586 57.5682 141.8 57.1879 140.736 57.1879C139.24 57.1879 138.176 57.7199 137.542 58.7846C136.909 59.8489 136.592 61.3822 136.592 63.3842V73.8002H130.928V61.6736C130.928 60.685 130.814 59.8616 130.586 59.2026C130.358 58.5437 130.015 58.0495 129.559 57.7199C129.103 57.3651 128.52 57.1879 127.811 57.1879C126.771 57.1879 125.948 57.4539 125.34 57.9862C124.731 58.5182 124.3 59.2914 124.047 60.3051C123.794 61.3189 123.667 62.5604 123.667 64.0304V73.8002H118.003V53.0442H122.337L123.097 55.7052H123.401C123.832 54.9956 124.364 54.4255 124.998 53.9946C125.631 53.5383 126.328 53.2091 127.088 53.0064C127.874 52.7782 128.66 52.664 129.445 52.664C130.966 52.664 132.258 52.9176 133.323 53.4245C134.387 53.9059 135.198 54.6663 135.756 55.7052H136.25C136.883 54.6409 137.758 53.868 138.873 53.3862C140.013 52.9049 141.179 52.664 142.37 52.664ZM163.903 52.664C165.828 52.664 167.476 53.0315 168.844 53.7665C170.238 54.5015 171.315 55.5658 172.076 56.9598C172.836 58.3537 173.216 60.0643 173.216 62.0917V64.8287H159.835C159.885 66.4253 160.354 67.68 161.241 68.5922C162.154 69.5044 163.408 69.9607 165.005 69.9607C166.348 69.9607 167.564 69.834 168.654 69.5804C169.744 69.3017 170.872 68.8836 172.037 68.3262V72.6976C171.024 73.2045 169.947 73.572 168.806 73.8002C167.691 74.0534 166.335 74.1804 164.739 74.1804C162.661 74.1804 160.823 73.8002 159.227 73.04C157.63 72.2541 156.376 71.0759 155.463 69.5044C154.551 67.9332 154.095 65.9567 154.095 63.5741C154.095 61.1413 154.5 59.1266 155.311 57.5299C156.147 55.9082 157.301 54.6914 158.771 53.8808C160.24 53.0697 161.951 52.664 163.903 52.664ZM163.94 56.6938C162.851 56.6938 161.938 57.0486 161.203 57.7581C160.494 58.4676 160.076 59.5701 159.949 61.0653H167.894C167.894 60.2291 167.742 59.4814 167.438 58.8224C167.159 58.1634 166.728 57.6438 166.145 57.264C165.562 56.8837 164.827 56.6938 163.94 56.6938ZM189.593 52.664C191.823 52.664 193.61 53.2724 194.953 54.4888C196.296 55.6801 196.968 57.606 196.968 60.2669V73.8002H191.304V61.6736C191.304 60.1782 191.038 59.0633 190.506 58.3283C189.974 57.5682 189.124 57.1879 187.959 57.1879C186.235 57.1879 185.057 57.7836 184.423 58.9745C183.79 60.1403 183.473 61.8257 183.473 64.0304V73.8002H177.809V53.0442H182.143L182.903 55.7052H183.207C183.663 54.9956 184.221 54.4255 184.879 53.9946C185.538 53.5383 186.273 53.2091 187.085 53.0064C187.895 52.7782 188.732 52.664 189.593 52.664ZM211.536 69.6565C212.17 69.6565 212.778 69.5932 213.361 69.4665C213.944 69.3399 214.527 69.1878 215.11 69.0102V73.23C214.501 73.4832 213.741 73.6986 212.829 73.8762C211.942 74.0789 210.966 74.1804 209.902 74.1804C208.66 74.1804 207.545 73.9777 206.556 73.572C205.593 73.1667 204.82 72.4695 204.237 71.4812C203.68 70.4675 203.401 69.0735 203.401 67.2997V57.3018H200.702V54.9068L203.819 53.0064L205.454 48.6345H209.065V53.0442H214.881V57.3018H209.065V67.2997C209.065 68.0853 209.293 68.6809 209.75 69.0863C210.206 69.4665 210.801 69.6565 211.536 69.6565ZM224.94 53.0442V73.8002H219.276V53.0442H224.94ZM222.127 44.9093C222.963 44.9093 223.685 45.112 224.294 45.5173C224.902 45.8976 225.206 46.6198 225.206 47.6841C225.206 48.7233 224.902 49.4456 224.294 49.8509C223.685 50.2567 222.963 50.4593 222.127 50.4593C221.265 50.4593 220.53 50.2567 219.922 49.8509C219.339 49.4456 219.048 48.7233 219.048 47.6841C219.048 46.6198 219.339 45.8976 219.922 45.5173C220.53 45.112 221.265 44.9093 222.127 44.9093ZM239.373 52.6261C242.161 52.6261 244.29 53.2345 245.76 54.4509C247.255 55.6419 248.003 57.4794 248.003 59.9627V73.8002H244.049L242.947 70.9871H242.795C242.212 71.7221 241.604 72.3301 240.97 72.8119C240.362 73.2933 239.652 73.6353 238.841 73.838C238.056 74.0661 237.08 74.1804 235.914 74.1804C234.698 74.1804 233.595 73.9523 232.607 73.496C231.644 73.0146 230.884 72.2923 230.326 71.3292C229.769 70.3409 229.49 69.099 229.49 67.6039C229.49 65.3989 230.263 63.7771 231.809 62.7379C233.354 61.6736 235.673 61.0907 238.765 60.9892L242.377 60.8753V59.9627C242.377 58.873 242.085 58.075 241.502 57.5682C240.945 57.0613 240.159 56.8077 239.145 56.8077C238.132 56.8077 237.143 56.9598 236.18 57.264C235.217 57.5427 234.254 57.8974 233.291 58.3283L231.429 54.4888C232.544 53.9059 233.773 53.4499 235.116 53.1203C236.484 52.791 237.903 52.6261 239.373 52.6261ZM240.172 64.2585C238.347 64.3091 237.08 64.6388 236.371 65.2468C235.661 65.8552 235.306 66.6535 235.306 67.6417C235.306 68.5034 235.559 69.1245 236.066 69.5044C236.573 69.8595 237.232 70.0367 238.043 70.0367C239.26 70.0367 240.286 69.6819 241.122 68.9724C241.958 68.2374 242.377 67.2109 242.377 65.893V64.1825L240.172 64.2585Z" fill="white"/>
</g>
<defs>
<clipPath id="clip0_1_382">
<rect width="250.622" height="74.5498" fill="white" transform="translate(0.37793)"/>
</clipPath>
</defs>
</svg>
