<svg width="157" height="47" viewBox="0 0 157 47" fill="none" xmlns="http://www.w3.org/2000/svg">
<g clip-path="url(#clip0_331_19964)">
<path d="M0.522949 11.4226H10.3138C19.5835 11.4226 27.0981 18.9372 27.0981 28.2069V29.6056C27.0981 38.8752 19.5835 46.3899 10.3138 46.3899H0.522949V11.4226Z" fill="#946BEC"/>
<path d="M6.5835 6.29419H16.3744C25.6442 6.29419 33.1587 13.8088 33.1587 23.0785V24.4772C33.1587 33.7468 25.6442 41.2615 16.3744 41.2615H6.5835V6.29419Z" fill="#0CB6F4"/>
<path d="M11.4789 11.4226H6.70005H6.5835V41.2614H17.3068C20.2907 41.2614 22.9793 40.0182 23.9506 39.3965C27.8669 34.2679 27.2919 26.6917 26.5149 23.5446C22.785 13.2875 14.898 11.5003 11.4789 11.4226Z" fill="#31338D"/>
<path d="M18.5047 31.469C18.0529 31.469 18.0432 31.469 17.8797 31.0344C17.7515 30.657 17.6035 30.2871 17.4362 29.926C17.2293 29.5241 16.9096 29.1938 16.5174 28.9765C16.4634 28.9485 16.4035 28.9345 16.3428 28.9357C15.7261 28.9147 15.1455 28.7809 14.6549 28.373C14.6159 28.3464 14.572 28.3277 14.5258 28.3187C14.4796 28.3093 14.4321 28.3098 14.386 28.3196C13.7887 28.3688 13.1998 28.3464 12.6413 28.096C11.893 27.7599 11.394 26.9398 11.491 26.1789C11.5339 25.8395 11.6549 25.515 11.8441 25.2317C12.0333 24.9485 12.2855 24.7145 12.5803 24.5485C12.7039 24.4762 12.8044 24.3692 12.8699 24.2405C13.1956 23.6146 13.743 23.3065 14.4041 23.1729C14.693 23.1118 14.9919 23.12 15.2771 23.1968C15.3191 23.2127 15.3641 23.2181 15.4085 23.2124C15.453 23.2068 15.4953 23.1903 15.5321 23.1644C15.9104 22.8564 16.3636 22.8325 16.8112 22.8494C17.227 22.8648 17.6427 22.9281 17.9823 23.2095C18.0529 23.2671 18.1402 23.246 18.2234 23.2503C19.2378 23.3037 20.0042 23.775 20.4546 24.6991C20.5961 25.0313 20.7643 25.3513 20.9576 25.6555C21.4427 26.3463 21.3415 27.4011 20.7955 28.0468C20.6288 28.252 20.4075 28.4044 20.158 28.4856C20.051 28.5173 19.9589 28.5872 19.8989 28.6825C19.7292 28.942 19.4819 29.1392 19.1935 29.2453C19.1223 29.2653 19.0606 29.3108 19.0199 29.3733C18.9791 29.4357 18.962 29.5113 18.9717 29.5856C18.9673 29.9565 18.9817 30.3274 19.0147 30.6969C19.023 30.8375 19.0369 30.9668 19.0521 31.1004C19.0647 31.147 19.0658 31.1962 19.0553 31.2433C19.0448 31.2904 19.0231 31.3345 18.9921 31.3711C18.961 31.4077 18.9216 31.4361 18.8772 31.4536C18.8328 31.4713 18.7849 31.4774 18.7375 31.4718L18.5047 31.469Z" fill="white"/>
<path d="M56.2109 17.2654C56.2109 19.1578 55.8561 20.7427 55.1465 22.0201C54.4525 23.2975 53.4513 24.2595 52.1423 24.9061C50.8334 25.5526 49.2484 25.8759 47.3875 25.8759H42.6802V8.98608H47.8842C49.5874 8.98608 51.0621 9.30149 52.3078 9.93228C53.5536 10.5631 54.5157 11.4935 55.1938 12.7236C55.872 13.9379 56.2109 15.4518 56.2109 17.2654ZM53.9637 17.3364C53.9637 15.8382 53.7114 14.6081 53.2067 13.6462C52.7179 12.6842 51.9924 11.9745 51.0304 11.5172C50.0842 11.0441 48.933 10.8075 47.5768 10.8075H44.8092V24.0543H47.1038C49.3904 24.0543 51.1015 23.4946 52.237 22.3749C53.3881 21.2395 53.9637 19.5599 53.9637 17.3364ZM64.5723 12.9601C65.6605 12.9601 66.5908 13.1967 67.3636 13.6698C68.1522 14.1429 68.7514 14.8131 69.1614 15.6805C69.5873 16.5321 69.8001 17.5335 69.8001 18.6847V19.9384H61.1187C61.1502 21.3735 61.5129 22.4695 62.2069 23.2265C62.9165 23.9676 63.9021 24.3383 65.1637 24.3383C65.968 24.3383 66.6776 24.2674 67.2928 24.1254C67.9236 23.9676 68.57 23.7468 69.2325 23.4631V25.2845C68.5858 25.5684 67.9471 25.7733 67.3163 25.8994C66.6855 26.0414 65.9365 26.1125 65.0691 26.1125C63.8706 26.1125 62.806 25.868 61.8756 25.3791C60.9609 24.8903 60.2433 24.1648 59.723 23.2028C59.2183 22.2251 58.9661 21.0345 58.9661 19.6309C58.9661 18.2432 59.1948 17.0525 59.6519 16.059C60.1251 15.0655 60.7795 14.3006 61.6155 13.7644C62.467 13.2283 63.4526 12.9601 64.5723 12.9601ZM64.5487 14.6633C63.5552 14.6633 62.7666 14.9866 62.1831 15.6332C61.6155 16.264 61.2763 17.1471 61.166 18.2826H67.6238C67.6238 17.5571 67.5135 16.9264 67.2928 16.3902C67.072 15.854 66.7328 15.4361 66.2754 15.1364C65.8339 14.821 65.2584 14.6633 64.5487 14.6633ZM77.2622 24.4094C77.5776 24.4094 77.9009 24.3856 78.2322 24.3383C78.5632 24.2753 78.8313 24.2121 79.0364 24.149V25.7339C78.8157 25.8444 78.5002 25.9311 78.0902 25.9941C77.6801 26.0731 77.2859 26.1125 76.9074 26.1125C76.2451 26.1125 75.6301 26.002 75.0623 25.7812C74.5102 25.5446 74.0608 25.1425 73.7139 24.5749C73.367 24.0072 73.1936 23.2107 73.1936 22.1857V14.8053H71.3958V13.8117L73.2172 12.9838L74.0452 10.2871H75.2751V13.1967H78.9418V14.8053H75.2751V22.1384C75.2751 22.9111 75.4565 23.4867 75.8192 23.8653C76.1978 24.228 76.6787 24.4094 77.2622 24.4094ZM86.4719 12.9601C87.5601 12.9601 88.4904 13.1967 89.2632 13.6698C90.0516 14.1429 90.6509 14.8131 91.061 15.6805C91.4866 16.5321 91.6997 17.5335 91.6997 18.6847V19.9384H83.0183C83.0497 21.3735 83.4125 22.4695 84.1064 23.2265C84.816 23.9676 85.8017 24.3383 87.0633 24.3383C87.8675 24.3383 88.5771 24.2674 89.1921 24.1254C89.8229 23.9676 90.4696 23.7468 91.1319 23.4631V25.2845C90.4854 25.5684 89.8467 25.7733 89.2159 25.8994C88.5851 26.0414 87.8361 26.1125 86.9686 26.1125C85.7702 26.1125 84.7055 25.868 83.7752 25.3791C82.8604 24.8903 82.1429 24.1648 81.6226 23.2028C81.1179 22.2251 80.8657 21.0345 80.8657 19.6309C80.8657 18.2432 81.0941 17.0525 81.5515 16.059C82.0247 15.0655 82.6791 14.3006 83.515 13.7644C84.3666 13.2283 85.3522 12.9601 86.4719 12.9601ZM86.4481 14.6633C85.4548 14.6633 84.6662 14.9866 84.0827 15.6332C83.515 16.264 83.1758 17.1471 83.0656 18.2826H89.5233C89.5233 17.5571 89.4131 16.9264 89.1921 16.3902C88.9713 15.854 88.6324 15.4361 88.175 15.1364C87.7335 14.821 87.1579 14.6633 86.4481 14.6633ZM100.841 12.9601C101.078 12.9601 101.33 12.9759 101.598 13.0075C101.882 13.0232 102.127 13.0548 102.332 13.1021L102.071 15.0182C101.866 14.9708 101.638 14.9314 101.385 14.8999C101.149 14.8683 100.92 14.8526 100.699 14.8526C100.211 14.8526 99.7452 14.9551 99.3037 15.1601C98.8622 15.3651 98.4678 15.6568 98.1209 16.0353C97.774 16.398 97.498 16.8396 97.2931 17.36C97.1038 17.8804 97.0092 18.4639 97.0092 19.1105V25.8759H94.9274V13.1967H96.6306L96.8672 15.5149H96.9618C97.2299 15.0418 97.5532 14.616 97.9316 14.2375C98.3102 13.8433 98.7438 13.5358 99.2326 13.315C99.7217 13.0784 100.258 12.9601 100.841 12.9601Z" fill="black"/>
<path d="M56.5189 37.3132C56.5189 39.2056 56.1561 40.7906 55.4309 42.0681C54.7054 43.3453 53.6487 44.3074 52.261 44.954C50.8891 45.6005 49.2331 45.9238 47.2933 45.9238H42.5151V29.0339H47.8139C49.5802 29.0339 51.1099 29.3493 52.403 29.9801C53.7119 30.6109 54.7211 31.5415 55.4309 32.7714C56.1561 33.9857 56.5189 35.4998 56.5189 37.3132ZM52.8051 37.4079C52.8051 36.1621 52.6237 35.1371 52.261 34.3328C51.8983 33.5286 51.3542 32.9372 50.6287 32.5586C49.9191 32.1644 49.044 31.9672 48.0031 31.9672H46.0869V42.967H47.6246C49.375 42.967 50.676 42.5017 51.5276 41.5713C52.3792 40.6407 52.8051 39.253 52.8051 37.4079ZM65.0639 32.7714C66.2626 32.7714 67.2876 33.0001 68.1392 33.4575C69.0066 33.9148 69.6768 34.5771 70.1498 35.4446C70.623 36.312 70.8594 37.3764 70.8594 38.638V40.3411H62.533C62.5645 41.3347 62.8561 42.1154 63.4081 42.683C63.9758 43.2507 64.7565 43.5346 65.75 43.5346C66.5857 43.5346 67.3429 43.4558 68.021 43.298C68.6989 43.1245 69.4008 42.8644 70.1263 42.5175V45.2377C69.4955 45.5531 68.8253 45.7818 68.1154 45.9238C67.4217 46.0814 66.578 46.1604 65.5845 46.1604C64.2912 46.1604 63.148 45.9238 62.1544 45.4508C61.1609 44.9617 60.3802 44.2286 59.8125 43.2507C59.2449 42.273 58.961 41.0431 58.961 39.5604C58.961 38.0466 59.2132 36.7929 59.7179 35.7994C60.2384 34.7902 60.956 34.033 61.8705 33.5286C62.7852 33.0239 63.8496 32.7714 65.0639 32.7714ZM65.0877 35.279C64.4096 35.279 63.8417 35.4998 63.3846 35.9413C62.9428 36.3828 62.6827 37.0689 62.6039 37.9993H67.5478C67.5478 37.479 67.4531 37.0137 67.2639 36.6036C67.0904 36.1936 66.8223 35.8702 66.4596 35.6338C66.0969 35.3972 65.6395 35.279 65.0877 35.279ZM88.8804 32.7714C90.3472 32.7714 91.451 33.15 92.1923 33.9069C92.9492 34.6482 93.3278 35.8467 93.3278 37.5025V45.9238H89.8031V38.3778C89.8031 37.4472 89.6453 36.7535 89.3299 36.2961C89.0147 35.8231 88.5256 35.5865 87.8633 35.5865C86.933 35.5865 86.2707 35.9175 85.8763 36.5801C85.4821 37.2423 85.2849 38.1965 85.2849 39.4423V45.9238H81.7604V38.3778C81.7604 37.7627 81.6893 37.2503 81.5475 36.8402C81.4056 36.4302 81.1925 36.1227 80.9088 35.9175C80.6249 35.6968 80.2621 35.5865 79.8206 35.5865C79.174 35.5865 78.6616 35.752 78.283 36.0833C77.9044 36.4143 77.6363 36.8955 77.4787 37.5263C77.3209 38.1571 77.2421 38.9296 77.2421 39.8444V45.9238H73.7177V33.008H76.4143L76.8873 34.6638H77.0766C77.3447 34.2223 77.676 33.8675 78.0702 33.5994C78.4644 33.3155 78.8979 33.1106 79.3712 32.9845C79.86 32.8425 80.3489 32.7714 80.8377 32.7714C81.7839 32.7714 82.5882 32.9292 83.2507 33.2446C83.913 33.5442 84.4177 34.0174 84.7645 34.6638H85.072C85.4662 34.0016 86.0103 33.5206 86.7043 33.2209C87.4139 32.9213 88.1394 32.7714 88.8804 32.7714ZM102.279 32.7714C103.478 32.7714 104.503 33.0001 105.354 33.4575C106.222 33.9148 106.892 34.5771 107.365 35.4446C107.838 36.312 108.075 37.3764 108.075 38.638V40.3411H99.7483C99.7797 41.3347 100.072 42.1154 100.623 42.683C101.191 43.2507 101.972 43.5346 102.965 43.5346C103.801 43.5346 104.558 43.4558 105.236 43.298C105.914 43.1245 106.616 42.8644 107.342 42.5175V45.2377C106.711 45.5531 106.041 45.7818 105.331 45.9238C104.637 46.0814 103.793 46.1604 102.8 46.1604C101.507 46.1604 100.363 45.9238 99.3697 45.4508C98.3762 44.9617 97.5957 44.2286 97.0278 43.2507C96.4602 42.273 96.1762 41.0431 96.1762 39.5604C96.1762 38.0466 96.4287 36.7929 96.9332 35.7994C97.4537 34.7902 98.1712 34.033 99.086 33.5286C100.001 33.0239 101.065 32.7714 102.279 32.7714ZM102.303 35.279C101.625 35.279 101.057 35.4998 100.6 35.9413C100.158 36.3828 99.8982 37.0689 99.8191 37.9993H104.763C104.763 37.479 104.669 37.0137 104.479 36.6036C104.306 36.1936 104.038 35.8702 103.675 35.6338C103.312 35.3972 102.855 35.279 102.303 35.279ZM118.266 32.7714C119.654 32.7714 120.766 33.15 121.601 33.9069C122.437 34.6482 122.855 35.8467 122.855 37.5025V45.9238H119.33V38.3778C119.33 37.4472 119.165 36.7535 118.834 36.2961C118.503 35.8231 117.974 35.5865 117.249 35.5865C116.176 35.5865 115.443 35.9572 115.049 36.6982C114.655 37.4237 114.458 38.4725 114.458 39.8444V45.9238H110.933V33.008H113.63L114.103 34.6638H114.292C114.576 34.2223 114.923 33.8675 115.333 33.5994C115.743 33.3155 116.2 33.1106 116.705 32.9845C117.209 32.8425 117.73 32.7714 118.266 32.7714ZM131.92 43.3453C132.315 43.3453 132.693 43.3059 133.056 43.2271C133.419 43.1483 133.781 43.0537 134.144 42.9432V45.569C133.765 45.7266 133.292 45.8606 132.725 45.9711C132.173 46.0972 131.566 46.1604 130.903 46.1604C130.13 46.1604 129.437 46.0343 128.822 45.7818C128.222 45.5296 127.741 45.0958 127.379 44.4808C127.032 43.85 126.858 42.9826 126.858 41.8788V35.6574H125.179V34.1671L127.118 32.9845L128.136 30.264H130.383V33.008H134.002V35.6574H130.383V41.8788C130.383 42.3676 130.525 42.7383 130.809 42.9905C131.093 43.2271 131.463 43.3453 131.92 43.3453ZM140.261 33.008V45.9238H136.736V33.008H140.261ZM138.511 27.9459C139.031 27.9459 139.48 28.072 139.859 28.3243C140.237 28.5609 140.427 29.0103 140.427 29.6726C140.427 30.3193 140.237 30.7687 139.859 31.021C139.48 31.2734 139.031 31.3995 138.511 31.3995C137.974 31.3995 137.517 31.2734 137.139 31.021C136.776 30.7687 136.595 30.3193 136.595 29.6726C136.595 29.0103 136.776 28.5609 137.139 28.3243C137.517 28.072 137.974 27.9459 138.511 27.9459ZM149.243 32.7479C150.977 32.7479 152.302 33.1265 153.217 33.8834C154.147 34.6245 154.612 35.7679 154.612 37.3132V45.9238H152.152L151.466 44.1733H151.372C151.009 44.6307 150.63 45.0091 150.236 45.3088C149.858 45.6084 149.416 45.8212 148.911 45.9473C148.423 46.0893 147.816 46.1604 147.09 46.1604C146.333 46.1604 145.647 46.0184 145.032 45.7345C144.433 45.435 143.96 44.9855 143.613 44.3862C143.266 43.7712 143.092 42.9984 143.092 42.0681C143.092 40.6959 143.573 39.6868 144.535 39.0401C145.497 38.3778 146.94 38.0151 148.864 37.9519L151.112 37.8811V37.3132C151.112 36.6351 150.93 36.1385 150.567 35.8231C150.22 35.5077 149.732 35.3499 149.101 35.3499C148.47 35.3499 147.855 35.4446 147.256 35.6338C146.656 35.8073 146.057 36.028 145.458 36.2961L144.299 33.9069C144.993 33.5442 145.758 33.2605 146.593 33.0554C147.445 32.8504 148.328 32.7479 149.243 32.7479ZM149.739 39.9863C148.604 40.0178 147.816 40.223 147.374 40.6013C146.932 40.9799 146.712 41.4767 146.712 42.0916C146.712 42.6278 146.869 43.0143 147.185 43.2507C147.5 43.4717 147.91 43.5819 148.415 43.5819C149.172 43.5819 149.81 43.3612 150.331 42.9196C150.851 42.4623 151.112 41.8235 151.112 41.0034V39.939L149.739 39.9863Z" fill="#31338D"/>
</g>
<defs>
<clipPath id="clip0_331_19964">
<rect width="155.954" height="46.39" fill="white" transform="translate(0.522949)"/>
</clipPath>
</defs>
</svg>
