<svg width="156" height="47" viewBox="0 0 156 47" fill="none" xmlns="http://www.w3.org/2000/svg">
<g clip-path="url(#clip0_396_2420)">
<path d="M0 11.4227H9.79085C19.0606 11.4227 26.5752 18.9373 26.5752 28.207V29.6057C26.5752 38.8753 19.0606 46.39 9.79085 46.39H0V11.4227Z" fill="#946BEC"/>
<path d="M6.06055 6.29413H15.8514C25.1212 6.29413 32.6357 13.8087 32.6357 23.0785V24.4771C32.6357 33.7468 25.1212 41.2615 15.8514 41.2615H6.06055V6.29413Z" fill="#0CB6F4"/>
<path d="M10.956 11.4227H6.1771H6.06055V41.2615H16.7839C19.7677 41.2615 22.4563 40.0183 23.4277 39.3965C27.344 34.268 26.7689 26.6917 25.9919 23.5447C22.2621 13.2876 14.375 11.5004 10.956 11.4227Z" fill="#31338D"/>
<path d="M17.9818 31.469C17.53 31.469 17.5203 31.469 17.3568 31.0344C17.2286 30.657 17.0806 30.2871 16.9133 29.926C16.7064 29.5241 16.3866 29.1938 15.9945 28.9765C15.9405 28.9485 15.8805 28.9345 15.8199 28.9357C15.2032 28.9147 14.6225 28.7809 14.1319 28.373C14.093 28.3464 14.0491 28.3277 14.0029 28.3187C13.9567 28.3093 13.9091 28.3098 13.8631 28.3196C13.2658 28.3688 12.6768 28.3464 12.1183 28.096C11.37 27.7599 10.8711 26.9398 10.9681 26.1789C11.011 25.8395 11.1319 25.515 11.3211 25.2317C11.5104 24.9485 11.7626 24.7145 12.0574 24.5485C12.181 24.4762 12.2815 24.3692 12.347 24.2405C12.6727 23.6146 13.2201 23.3065 13.8811 23.1729C14.17 23.1118 14.4689 23.12 14.7542 23.1968C14.7961 23.2127 14.8412 23.2181 14.8856 23.2124C14.93 23.2068 14.9724 23.1903 15.0092 23.1644C15.3875 22.8564 15.8407 22.8325 16.2883 22.8494C16.704 22.8648 17.1198 22.9281 17.4593 23.2095C17.53 23.2671 17.6173 23.246 17.7004 23.2503C18.7149 23.3037 19.4812 23.775 19.9316 24.6991C20.0731 25.0313 20.2414 25.3513 20.4347 25.6555C20.9197 26.3463 20.8186 27.4011 20.2725 28.0468C20.1058 28.252 19.8846 28.4044 19.635 28.4856C19.528 28.5173 19.4359 28.5872 19.3759 28.6825C19.2063 28.942 18.959 29.1392 18.6705 29.2453C18.5993 29.2653 18.5377 29.3108 18.4969 29.3733C18.4562 29.4357 18.4391 29.5113 18.4488 29.5856C18.4444 29.9565 18.4587 30.3274 18.4918 30.6969C18.5001 30.8375 18.5139 30.9668 18.5292 31.1004C18.5417 31.147 18.5428 31.1962 18.5324 31.2433C18.5219 31.2904 18.5002 31.3345 18.4691 31.3711C18.4381 31.4077 18.3986 31.4361 18.3542 31.4536C18.3099 31.4713 18.2619 31.4774 18.2146 31.4718L17.9818 31.469Z" fill="white"/>
<path d="M55.688 17.2653C55.688 19.1577 55.3332 20.7426 54.6235 22.02C53.9296 23.2974 52.9283 24.2594 51.6194 24.9061C50.3104 25.5525 48.7255 25.8758 46.8645 25.8758H42.1572V8.98602H47.3613C49.0644 8.98602 50.5391 9.30143 51.7849 9.93222C53.0307 10.563 53.9927 11.4935 54.6709 12.7235C55.349 13.9378 55.688 15.4518 55.688 17.2653ZM53.4407 17.3363C53.4407 15.8381 53.1885 14.6081 52.6838 13.6461C52.1949 12.6841 51.4695 11.9744 50.5074 11.5171C49.5612 11.044 48.4101 10.8075 47.0538 10.8075H44.2863V24.0543H46.5808C48.8675 24.0543 50.5785 23.4946 51.714 22.3749C52.8652 21.2394 53.4407 19.5599 53.4407 17.3363ZM64.0493 12.9601C65.1375 12.9601 66.0679 13.1966 66.8407 13.6698C67.6293 14.1428 68.2284 14.8131 68.6385 15.6804C69.0644 16.532 69.2772 17.5334 69.2772 18.6847V19.9384H60.5957C60.6272 21.3735 60.9899 22.4695 61.6839 23.2264C62.3935 23.9675 63.3791 24.3382 64.6408 24.3382C65.445 24.3382 66.1546 24.2673 66.7698 24.1254C67.4006 23.9675 68.047 23.7468 68.7096 23.4631V25.2844C68.0629 25.5683 67.4242 25.7733 66.7933 25.8994C66.1625 26.0413 65.4135 26.1124 64.5461 26.1124C63.3477 26.1124 62.283 25.8679 61.3527 25.3791C60.4379 24.8902 59.7204 24.1648 59.2001 23.2028C58.6954 22.2251 58.4431 21.0344 58.4431 19.6308C58.4431 18.2431 58.6718 17.0525 59.129 16.0589C59.6022 15.0654 60.2566 14.3005 61.0925 13.7644C61.9441 13.2282 62.9297 12.9601 64.0493 12.9601ZM64.0258 14.6633C63.0323 14.6633 62.2436 14.9866 61.6601 15.6331C61.0925 16.2639 60.7533 17.1471 60.6431 18.2825H67.1008C67.1008 17.5571 66.9906 16.9263 66.7698 16.3901C66.549 15.8539 66.2099 15.436 65.7525 15.1364C65.311 14.821 64.7354 14.6633 64.0258 14.6633ZM76.7392 24.4093C77.0546 24.4093 77.378 24.3855 77.7092 24.3382C78.0402 24.2753 78.3083 24.2121 78.5135 24.1489V25.7339C78.2927 25.8444 77.9773 25.9311 77.5672 25.994C77.1572 26.073 76.763 26.1124 76.3844 26.1124C75.7221 26.1124 75.1072 26.0019 74.5393 25.7812C73.9873 25.5446 73.5378 25.1424 73.191 24.5748C72.8441 24.0072 72.6707 23.2107 72.6707 22.1856V14.8052H70.8729V13.8117L72.6942 12.9837L73.5222 10.2871H74.7521V13.1967H78.4188V14.8052H74.7521V22.1383C74.7521 22.911 74.9335 23.4866 75.2962 23.8652C75.6748 24.2279 76.1557 24.4093 76.7392 24.4093ZM85.9489 12.9601C87.0371 12.9601 87.9675 13.1966 88.7402 13.6698C89.5286 14.1428 90.128 14.8131 90.538 15.6804C90.9637 16.532 91.1768 17.5334 91.1768 18.6847V19.9384H82.4953C82.5268 21.3735 82.8895 22.4695 83.5835 23.2264C84.2931 23.9675 85.2787 24.3382 86.5403 24.3382C87.3446 24.3382 88.0542 24.2673 88.6691 24.1254C89.3 23.9675 89.9466 23.7468 90.6089 23.4631V25.2844C89.9625 25.5683 89.3237 25.7733 88.6929 25.8994C88.0621 26.0413 87.3131 26.1124 86.4457 26.1124C85.2472 26.1124 84.1826 25.8679 83.2522 25.3791C82.3375 24.8902 81.62 24.1648 81.0996 23.2028C80.5949 22.2251 80.3427 21.0344 80.3427 19.6308C80.3427 18.2431 80.5712 17.0525 81.0285 16.0589C81.5018 15.0654 82.1561 14.3005 82.9921 13.7644C83.8437 13.2282 84.8293 12.9601 85.9489 12.9601ZM85.9251 14.6633C84.9318 14.6633 84.1432 14.9866 83.5597 15.6331C82.9921 16.2639 82.6529 17.1471 82.5426 18.2825H89.0004C89.0004 17.5571 88.8901 16.9263 88.6691 16.3901C88.4484 15.8539 88.1094 15.436 87.6521 15.1364C87.2105 14.821 86.635 14.6633 85.9251 14.6633ZM100.318 12.9601C100.555 12.9601 100.807 12.9759 101.075 13.0074C101.359 13.0232 101.604 13.0547 101.809 13.102L101.548 15.0181C101.343 14.9708 101.115 14.9314 100.862 14.8998C100.626 14.8683 100.397 14.8525 100.176 14.8525C99.6876 14.8525 99.2223 14.955 98.7808 15.16C98.3392 15.365 97.9448 15.6568 97.5979 16.0353C97.2511 16.398 96.9751 16.8395 96.7701 17.36C96.5809 17.8804 96.4862 18.4639 96.4862 19.1104V25.8758H94.4045V13.1967H96.1076L96.3442 15.5148H96.4389C96.707 15.0418 97.0303 14.616 97.4086 14.2375C97.7872 13.8432 98.2208 13.5357 98.7097 13.3149C99.1987 13.0784 99.7349 12.9601 100.318 12.9601Z" fill="white"/>
<path d="M55.9959 37.3132C55.9959 39.2056 55.6332 40.7906 54.908 42.068C54.1825 43.3453 53.1258 44.3073 51.7381 44.954C50.3662 45.6004 48.7101 45.9238 46.7704 45.9238H41.9922V29.0338H47.2909C49.0572 29.0338 50.5869 29.3492 51.88 29.9801C53.189 30.6109 54.1981 31.5415 54.908 32.7714C55.6332 33.9857 55.9959 35.4998 55.9959 37.3132ZM52.2821 37.4078C52.2821 36.1621 52.1008 35.137 51.7381 34.3328C51.3753 33.5285 50.8312 32.9371 50.1058 32.5586C49.3962 32.1644 48.5211 31.9671 47.4802 31.9671H45.564V42.9669H47.1016C48.8521 42.9669 50.1531 42.5016 51.0047 41.5713C51.8562 40.6407 52.2821 39.2529 52.2821 37.4078ZM64.541 32.7714C65.7397 32.7714 66.7647 33.0001 67.6163 33.4574C68.4837 33.9148 69.1539 34.5771 69.6269 35.4445C70.1001 36.3119 70.3365 37.3764 70.3365 38.638V40.3411H62.0101C62.0415 41.3347 62.3332 42.1154 62.8852 42.683C63.4528 43.2506 64.2335 43.5346 65.227 43.5346C66.0628 43.5346 66.8199 43.4558 67.4981 43.298C68.176 43.1245 68.8779 42.8644 69.6033 42.5175V45.2377C68.9725 45.5531 68.3023 45.7818 67.5925 45.9238C66.8987 46.0814 66.0551 46.1604 65.0615 46.1604C63.7682 46.1604 62.625 45.9238 61.6315 45.4508C60.6379 44.9617 59.8572 44.2286 59.2896 43.2506C58.722 42.2729 58.438 41.043 58.438 39.5604C58.438 38.0466 58.6903 36.7929 59.195 35.7993C59.7155 34.7902 60.433 34.033 61.3475 33.5285C62.2623 33.0239 63.3267 32.7714 64.541 32.7714ZM64.5648 35.279C63.8866 35.279 63.3188 35.4998 62.8616 35.9413C62.4199 36.3828 62.1597 37.0689 62.0809 37.9992H67.0248C67.0248 37.4789 66.9302 37.0136 66.7409 36.6036C66.5675 36.1935 66.2994 35.8702 65.9367 35.6338C65.5739 35.3972 65.1166 35.279 64.5648 35.279ZM88.3575 32.7714C89.8242 32.7714 90.928 33.15 91.6693 33.9069C92.4263 34.6482 92.8049 35.8466 92.8049 37.5025V45.9238H89.2801V38.3778C89.2801 37.4472 89.1223 36.7535 88.8069 36.2961C88.4917 35.8231 88.0027 35.5865 87.3404 35.5865C86.41 35.5865 85.7478 35.9175 85.3533 36.58C84.9591 37.2423 84.7619 38.1965 84.7619 39.4422V45.9238H81.2374V38.3778C81.2374 37.7626 81.1663 37.2502 81.0246 36.8402C80.8826 36.4301 80.6696 36.1227 80.3859 35.9175C80.1019 35.6968 79.7392 35.5865 79.2977 35.5865C78.651 35.5865 78.1386 35.752 77.76 36.0833C77.3815 36.4143 77.1134 36.8954 76.9558 37.5262C76.798 38.1571 76.7192 38.9296 76.7192 39.8443V45.9238H73.1947V33.008H75.8914L76.3644 34.6638H76.5537C76.8218 34.2223 77.153 33.8675 77.5472 33.5994C77.9414 33.3155 78.375 33.1106 78.8482 32.9845C79.3371 32.8425 79.8259 32.7714 80.3148 32.7714C81.261 32.7714 82.0652 32.9292 82.7277 33.2446C83.39 33.5442 83.8947 34.0174 84.2416 34.6638H84.5491C84.9433 34.0015 85.4874 33.5206 86.1813 33.2208C86.8909 32.9213 87.6164 32.7714 88.3575 32.7714ZM101.756 32.7714C102.955 32.7714 103.98 33.0001 104.832 33.4574C105.699 33.9148 106.369 34.5771 106.842 35.4445C107.315 36.3119 107.552 37.3764 107.552 38.638V40.3411H99.2253C99.2568 41.3347 99.5487 42.1154 100.1 42.683C100.668 43.2506 101.449 43.5346 102.442 43.5346C103.278 43.5346 104.035 43.4558 104.713 43.298C105.391 43.1245 106.093 42.8644 106.819 42.5175V45.2377C106.188 45.5531 105.518 45.7818 104.808 45.9238C104.114 46.0814 103.27 46.1604 102.277 46.1604C100.984 46.1604 99.8403 45.9238 98.8467 45.4508C97.8532 44.9617 97.0727 44.2286 96.5049 43.2506C95.9372 42.2729 95.6533 41.043 95.6533 39.5604C95.6533 38.0466 95.9058 36.7929 96.4102 35.7993C96.9308 34.7902 97.6483 34.033 98.563 33.5285C99.4776 33.0239 100.542 32.7714 101.756 32.7714ZM101.78 35.279C101.102 35.279 100.534 35.4998 100.077 35.9413C99.6354 36.3828 99.3752 37.0689 99.2962 37.9992H104.24C104.24 37.4789 104.146 37.0136 103.956 36.6036C103.783 36.1935 103.515 35.8702 103.152 35.6338C102.789 35.3972 102.332 35.279 101.78 35.279ZM117.743 32.7714C119.131 32.7714 120.243 33.15 121.079 33.9069C121.914 34.6482 122.332 35.8466 122.332 37.5025V45.9238H118.807V38.3778C118.807 37.4472 118.642 36.7535 118.311 36.2961C117.98 35.8231 117.451 35.5865 116.726 35.5865C115.653 35.5865 114.92 35.9571 114.526 36.6982C114.132 37.4237 113.935 38.4725 113.935 39.8443V45.9238H110.41V33.008H113.107L113.58 34.6638H113.769C114.053 34.2223 114.4 33.8675 114.81 33.5994C115.22 33.3155 115.677 33.1106 116.182 32.9845C116.686 32.8425 117.207 32.7714 117.743 32.7714ZM131.397 43.3453C131.792 43.3453 132.17 43.3059 132.533 43.2271C132.896 43.1483 133.258 43.0536 133.621 42.9432V45.569C133.242 45.7266 132.769 45.8606 132.202 45.9711C131.65 46.0972 131.043 46.1604 130.38 46.1604C129.608 46.1604 128.914 46.0343 128.299 45.7818C127.699 45.5296 127.218 45.0957 126.856 44.4808C126.509 43.85 126.335 42.9825 126.335 41.8787V35.6574H124.656V34.167L126.595 32.9845L127.613 30.264H129.86V33.008H133.479V35.6574H129.86V41.8787C129.86 42.3676 130.002 42.7382 130.286 42.9905C130.57 43.2271 130.94 43.3453 131.397 43.3453ZM139.738 33.008V45.9238H136.214V33.008H139.738ZM137.988 27.9459C138.508 27.9459 138.958 28.072 139.336 28.3242C139.714 28.5609 139.904 29.0103 139.904 29.6726C139.904 30.3192 139.714 30.7687 139.336 31.0209C138.958 31.2734 138.508 31.3995 137.988 31.3995C137.451 31.3995 136.994 31.2734 136.616 31.0209C136.253 30.7687 136.072 30.3192 136.072 29.6726C136.072 29.0103 136.253 28.5609 136.616 28.3242C136.994 28.072 137.451 27.9459 137.988 27.9459ZM148.72 32.7478C150.454 32.7478 151.779 33.1264 152.694 33.8833C153.624 34.6244 154.09 35.7679 154.09 37.3132V45.9238H151.629L150.943 44.1733H150.849C150.486 44.6307 150.107 45.009 149.713 45.3088C149.335 45.6084 148.893 45.8212 148.388 45.9473C147.9 46.0893 147.293 46.1604 146.567 46.1604C145.81 46.1604 145.124 46.0184 144.509 45.7345C143.91 45.4349 143.437 44.9855 143.09 44.3861C142.743 43.7712 142.569 42.9984 142.569 42.068C142.569 40.6959 143.05 39.6868 144.012 39.0401C144.974 38.3778 146.417 38.0151 148.341 37.9519L150.589 37.881V37.3132C150.589 36.635 150.407 36.1385 150.045 35.8231C149.697 35.5077 149.209 35.3499 148.578 35.3499C147.947 35.3499 147.332 35.4445 146.733 35.6338C146.134 35.8072 145.534 36.028 144.935 36.2961L143.776 33.9069C144.47 33.5442 145.235 33.2605 146.07 33.0553C146.922 32.8504 147.805 32.7478 148.72 32.7478ZM149.216 39.9863C148.081 40.0178 147.293 40.2229 146.851 40.6013C146.409 40.9799 146.189 41.4766 146.189 42.0916C146.189 42.6277 146.346 43.0143 146.662 43.2506C146.977 43.4716 147.387 43.5819 147.892 43.5819C148.649 43.5819 149.287 43.3611 149.808 42.9196C150.328 42.4622 150.589 41.8235 150.589 41.0034V39.939L149.216 39.9863Z" fill="white"/>
</g>
<defs>
<clipPath id="clip0_396_2420">
<rect width="155.954" height="46.39" fill="white"/>
</clipPath>
</defs>
</svg>
